<svg width="100" height="79" viewBox="0 0 100 79" fill="none" xmlns="http://www.w3.org/2000/svg">
<g clip-path="url(#clip0_107_7)">
<path fill-rule="evenodd" clip-rule="evenodd" d="M45.2516 0.0217285C47.4836 0.0217285 49.6937 0.130245 51.2473 0.347278C52.6039 0.542608 54.5514 0.933267 55.5799 1.21541C56.6083 1.51926 58.0744 2.04014 58.8621 2.40909C59.6499 2.77805 60.6783 3.32063 61.1379 3.64618C61.9475 4.21046 62.1444 4.23217 64.6389 4.25387C66.8709 4.27557 67.5711 4.36239 69.0372 4.83986C70.1313 5.18711 71.3786 5.81651 72.3632 6.51101C73.2385 7.097 74.3326 8.09536 74.7702 8.68134C75.5799 9.74481 75.6893 9.80992 78.2276 10.6563C79.6718 11.1338 81.6849 11.9368 82.7133 12.4577C83.7418 12.9569 85.361 13.8901 86.302 14.5412C87.2648 15.1923 88.6433 16.2775 89.3654 16.9286C90.0875 17.5797 91.2473 18.8602 91.9694 19.75C92.6915 20.6399 93.6761 22.0723 94.1575 22.897C94.6608 23.7217 95.4486 25.3929 95.9519 26.5866C96.4333 27.7802 97.1991 29.3429 97.6586 30.0591C98.0963 30.7753 98.7965 32.0992 99.1904 32.989C99.8906 34.6168 99.8906 34.6168 100.044 43.2981L99.3435 45.0344C98.9497 45.9893 98.2495 47.3566 97.7462 48.0728C97.2648 48.789 96.302 49.9393 95.6455 50.6555C94.9672 51.35 93.8293 52.3484 93.1072 52.8476C92.3851 53.3467 91.291 54.0195 90.7002 54.3234C90.0875 54.6055 88.8184 55.1047 87.8556 55.4085C86.8928 55.7124 85.1203 56.0813 83.9168 56.2116C82.5383 56.3852 80.8315 56.4286 79.3217 56.3418C77.9869 56.255 76.2582 56.0813 73.9606 55.669L72.9103 56.7107C72.3414 57.2967 71.0941 58.3602 70.1313 59.0764C69.1685 59.8143 67.593 60.7693 66.6302 61.225C65.6674 61.6808 64.0481 62.2668 63.0197 62.5489C61.488 62.9396 60.5908 63.0264 57.9869 63.0264C55.8206 63.0047 54.2888 62.8962 53.1729 62.6357C52.2757 62.4404 50.547 61.9412 49.3435 61.5289C48.14 61.1382 47.1554 60.8127 47.1554 60.8344C47.1335 60.8561 46.7396 61.3986 46.2801 62.028C45.7987 62.6791 44.8359 63.6558 44.1575 64.1984C43.4792 64.7627 42.3851 65.544 41.7505 65.9129C41.116 66.3036 39.6061 67.0415 38.4026 67.5624C37.1991 68.0833 35.5799 68.9297 34.7921 69.4506C34.0044 69.9715 32.4726 71.2954 31.4004 72.3805C30.3063 73.444 28.6214 75.1802 27.6149 76.2437C26.5646 77.3506 25.4486 78.3055 24.8796 78.566C24.3107 78.8264 23.4792 79 22.6915 79C21.8818 79 21.1597 78.8481 20.6127 78.5877C20.1751 78.3706 19.5842 77.9366 19.3217 77.6544C19.0591 77.394 18.6871 76.7863 18.512 76.3305C18.3151 75.8965 18.1619 75.0934 18.1619 74.5508C18.1619 74.0083 18.512 72.4239 18.9497 71.0132C19.3873 69.6242 20.0438 67.4973 20.3939 66.3036C20.744 65.1099 21.0941 63.6992 21.1597 63.1566C21.2473 62.4404 21.2035 62.1366 20.9847 62.0497C20.8096 61.9629 19.8468 61.7025 18.8184 61.4638C17.7899 61.225 16.1269 60.7258 15.0985 60.3569C14.07 59.9662 12.6039 59.2934 11.8162 58.816C11.0284 58.3602 9.89059 57.5572 9.29978 57.0146C8.68709 56.4937 7.78993 55.4519 7.26477 54.6706C6.76149 53.911 6.1488 52.6522 5.9081 51.8709C5.6674 51.0896 5.47046 49.9176 5.47046 49.2665C5.47046 48.0728 5.47046 48.0728 3.89497 46.4451C2.97593 45.5118 2.03501 44.2965 1.70678 43.6237C1.40044 42.9726 0.875273 41.6487 0.547045 40.6937C-0.0218826 38.9791 -0.0437645 38.8706 0.109408 29.408L0.831509 27.6717C1.24726 26.7168 2.03501 25.241 2.58206 24.4162C3.15098 23.5915 4.44201 22.0723 5.49234 21.0522C6.52079 20.0322 7.63676 18.7083 7.98687 18.1223C8.33698 17.5146 8.99343 16.4945 9.47484 15.8434C9.95624 15.1923 11.0941 13.9118 12.0131 13.022C12.9322 12.1322 14.7046 10.6998 15.9737 9.85332C17.2429 9.00689 19.0591 7.96514 20.0219 7.50937C20.9847 7.0536 22.5602 6.38079 23.523 6.03354C24.4858 5.68629 25.8862 5.25222 26.6302 5.0786C27.5274 4.88327 28.3807 4.49261 29.0372 3.99343C29.628 3.55937 30.7221 2.92997 31.5098 2.56101C32.2976 2.21376 33.6761 1.69288 34.5733 1.41074C35.4705 1.1286 37.1554 0.759641 38.2932 0.564311C39.4311 0.368981 40.6783 0.195355 41.0284 0.151948C41.3786 0.108542 43.2823 0.0434318 45.2298 0.0217285H45.2516ZM36.8928 5.38244L35.5799 5.79481C36.9365 6.46761 37.8118 7.20552 38.4245 7.83492C39.0153 8.48601 39.7593 9.59288 40.0875 10.3091C40.4158 11.0253 40.8315 12.3058 41.0503 13.1305C41.2473 13.9552 41.5098 16.0605 41.6193 17.7967C41.7287 19.533 41.9694 21.4863 42.1663 22.1374C42.3414 22.7885 42.7352 23.7217 43.0197 24.1992C43.2823 24.6767 43.9168 25.4363 44.4201 25.8704C44.9015 26.3261 45.6893 26.8904 46.1269 27.1074C46.5864 27.3245 47.593 27.6934 48.3807 27.8888C49.3654 28.1492 50.372 28.236 51.663 28.1709C53.2166 28.0841 53.6761 27.9756 54.442 27.4981L55.3829 26.9121C55.4923 22.4629 55.558 22.1157 56.1488 20.9871C56.4989 20.2709 56.9803 19.5547 57.1772 19.3594C57.5273 19.0121 57.5273 18.9687 57.0678 18.6432C56.7615 18.4261 56.4551 17.7967 56.2144 16.9069C55.9956 16.1473 55.7768 15.0838 55.733 14.5412C55.6236 13.6297 55.558 13.5429 54.5733 13.0871C53.9825 12.8267 52.9322 12.4577 52.2101 12.2841C51.3348 12.0454 49.9781 11.9368 48.1619 11.9368C45.7549 11.9585 45.361 11.8934 44.814 11.5028C44.3326 11.1555 44.2232 10.8951 44.2232 10.2006C44.2232 9.7231 44.3107 9.13711 44.442 8.89838C44.5733 8.65964 44.9891 8.35579 45.361 8.24728C45.7549 8.11706 47.0241 8.03025 48.1619 8.03025C49.2998 8.03025 51.0941 8.18217 52.1444 8.35579C53.2166 8.52942 54.6171 8.87667 55.2735 9.11541L56.477 9.54948C57.046 8.61623 57.4617 8.09536 57.7681 7.76981L58.337 7.18382C57.1554 6.48931 56.0175 6.03354 55.0547 5.7297C54.0919 5.42585 52.6258 5.03519 51.7724 4.86156C50.919 4.68794 48.512 4.51431 46.4114 4.4492C43.7199 4.38409 41.9256 4.4492 40.3939 4.66623C39.1904 4.83986 37.6149 5.16541 36.8928 5.38244V5.38244ZM62.2757 9.15882C61.9256 9.33244 61.2691 9.87503 60.8534 10.3525C60.4376 10.83 59.9562 11.6113 59.8249 12.0671C59.6718 12.5228 59.5405 13.239 59.5405 13.6297C59.5405 13.9987 59.7155 14.9536 59.9125 15.7132L60.3063 17.1022C61.488 16.6899 62.3195 16.4945 62.9322 16.4294C63.523 16.3426 64.6171 16.386 65.3392 16.4945C66.0613 16.603 67.1335 16.9503 67.7462 17.2541C68.337 17.5797 69.256 18.2091 69.7593 18.6866C70.2845 19.1423 70.9628 19.9454 71.2691 20.4662C71.5974 20.9654 72.8446 22.7017 74.0481 24.3077C75.2735 25.9138 77.0678 28.0624 78.0525 29.0824C79.1685 30.2327 80.3063 31.1877 81.116 31.6217C81.8381 31.9907 82.954 32.4465 83.6105 32.6418C84.267 32.8371 85.3392 32.989 85.9519 32.989C86.5864 32.989 87.6805 32.772 88.3589 32.5333C89.1247 32.2511 89.9562 31.7302 90.4376 31.2311C91.0503 30.6234 91.3348 30.0808 91.5098 29.2561C91.7505 28.1492 91.7287 28.0407 91.0503 26.6951C90.6565 25.9138 89.9343 24.6984 89.4529 23.9822C88.9715 23.266 87.965 22.0506 87.2429 21.291C86.4989 20.5313 85.361 19.5113 84.7046 18.9904C84.0481 18.4912 82.954 17.7533 82.2976 17.3627C81.6411 16.972 80.3501 16.3209 79.453 15.9302C78.5558 15.5396 77.7899 15.2574 77.7462 15.3226C77.7243 15.366 78.2057 16.169 78.8403 17.1022C79.4748 18.0138 80.6346 19.4679 81.4442 20.2926C82.2319 21.1173 83.2385 22.0506 83.6761 22.3544C84.1138 22.6583 84.5733 23.114 84.7046 23.3962C84.814 23.6566 84.9234 24.1558 84.9234 24.5248C84.9234 24.8937 84.7265 25.3712 84.4858 25.6099C84.2451 25.8487 83.7856 26.1091 83.4354 26.1742C83.1072 26.2393 82.6258 26.2393 82.3414 26.1742C82.0788 26.1091 81.291 25.5665 80.5908 25.0022C79.9125 24.4162 78.7746 23.3311 78.0744 22.5498C77.3523 21.7901 76.1707 20.2275 75.4048 19.0989C74.6389 17.9704 73.4354 15.8217 72.7133 14.3242C71.7505 12.3058 71.2035 11.3943 70.5252 10.8083C70.0219 10.3525 69.1904 9.76651 68.6652 9.52777C68.1619 9.26733 67.1116 8.92008 66.3239 8.76816C65.5361 8.59453 64.814 8.48601 64.6827 8.48601C64.5514 8.50772 64.1138 8.57283 63.698 8.65964C63.2823 8.74645 62.6258 8.96349 62.2757 9.15882V9.15882ZM26.0613 9.76651C27.0678 11.0253 27.5711 11.8934 27.8337 12.4794C28.0963 13.0871 28.3589 14.194 28.4026 14.9753L28.512 16.386C31.0722 16.603 32.1007 16.8635 32.8884 17.2324C33.5886 17.5363 34.7046 18.3176 35.3829 18.947C36.105 19.6198 36.849 20.5965 37.2429 21.3778C37.6805 22.2676 37.9212 23.1574 38.0306 24.1992C38.1182 25.3061 38.0525 26.0657 37.7899 27.0206C37.5711 27.7368 37.0678 28.8654 36.6521 29.5165C36.2144 30.1676 35.9519 30.7753 36.0613 30.8404C36.1488 30.9055 36.7834 31.3396 37.4179 31.8171C38.0744 32.2728 39.0591 33.2495 39.5624 33.9657C40.0875 34.6819 40.7002 35.7671 40.8972 36.353C41.1597 37.1127 41.2691 38.1327 41.2691 39.8256C41.2691 41.9959 41.2035 42.3432 40.6565 43.5151C40.3063 44.2313 39.8031 45.1212 39.5186 45.4684C39.2341 45.8374 39.0591 46.2063 39.1466 46.2932C39.2341 46.38 40.1313 46.4451 41.1597 46.4451C42.1882 46.4451 43.8512 46.3149 44.8796 46.1412C45.9081 45.9676 47.5711 45.4901 48.5996 45.0995C49.628 44.7088 51.1816 43.9058 52.0788 43.2981C52.9759 42.7121 53.9168 42.0827 54.1575 41.9525C54.4201 41.8006 54.8796 41.6704 55.2079 41.6704C55.6017 41.6704 56.0394 41.9091 56.4114 42.2997C56.7615 42.647 57.3304 43.3198 57.6805 43.819C58.0963 44.3833 58.8184 44.9476 59.6499 45.3599C60.7659 45.9242 61.2035 46.011 62.6039 46.011C63.9606 46.011 64.442 45.9025 65.4267 45.425C66.0831 45.0778 66.9584 44.4267 67.3523 43.9492C67.768 43.4717 68.2494 42.7338 68.4464 42.3215C68.709 41.8006 68.8184 40.9976 68.8403 39.8256C68.8403 38.2846 68.7746 37.9591 68.1619 36.8956C67.7681 36.2011 67.0459 35.3547 66.4114 34.8772C65.7987 34.4215 64.7265 33.9006 63.9168 33.6618C63.1291 33.4231 61.9475 33.0758 61.291 32.9022C60.5033 32.6852 59.6061 32.186 58.709 31.4698L57.3523 30.3846C55.9081 31.1877 54.814 31.6 53.9606 31.7954C53.1072 31.9907 51.8381 32.1643 51.116 32.1426C50.3939 32.1426 48.9059 31.9473 47.8337 31.7302C46.5208 31.4481 45.1422 30.9489 43.7199 30.2544C41.9256 29.3646 41.4223 28.9956 40.744 28.1058C40.3063 27.5198 39.628 26.3478 39.256 25.5014C38.8621 24.6767 38.4026 23.3094 38.2276 22.4629C38.0525 21.6382 37.8556 19.7717 37.7681 18.3393C37.6805 16.9069 37.4836 15.1272 37.3085 14.3893C37.1335 13.6297 36.7615 12.5662 36.477 12.0019C36.1926 11.416 35.558 10.5912 35.0547 10.1572C34.5733 9.7014 33.7856 9.24563 33.326 9.11541C32.8884 9.00689 31.8818 8.89838 31.0941 8.92008C30.3063 8.92008 28.8621 9.11541 27.8556 9.35415L26.0613 9.76651ZM18.3589 13.7382C17.6586 14.1723 16.3457 15.2357 15.4486 16.1039C14.5295 16.972 13.3479 18.3176 12.8228 19.0989C12.2538 19.9237 11.7287 21.0522 11.5317 21.8118C11.3348 22.5498 11.1816 24.0256 11.1816 25.2193C11.1816 26.3912 11.3567 28.1058 11.5317 29.0173C11.7287 29.9506 12.2101 31.5349 12.6258 32.555C13.0416 33.575 13.3698 34.7036 13.3698 35.0943C13.3698 35.5283 13.1947 35.9841 12.9322 36.2445C12.6915 36.4833 12.2757 36.722 12.0131 36.8088C11.7505 36.8739 11.2254 36.8522 10.8534 36.7437C10.5033 36.6135 10 36.2445 9.7593 35.8973C9.5186 35.55 9.01532 34.2912 8.62144 33.0976C8.22757 31.9039 7.76805 30.1025 7.593 29.0824C7.39606 28.0624 7.24289 26.9338 7.26477 26.5866C7.26477 25.9789 7.24289 25.9572 6.91466 26.261C6.71772 26.4346 6.21444 27.1726 5.82057 27.8888C5.4267 28.605 4.87965 29.8204 4.61707 30.6017C4.24508 31.6868 4.11378 32.5333 4.11378 34.2912C4.0919 35.5934 4.22319 37.0693 4.39825 37.7638C4.55142 38.4149 4.94529 39.5434 5.22976 40.2596C5.51422 40.9758 6.10503 42.0176 6.56455 42.6036L7.3523 43.6454C8.40263 42.0176 9.25602 41.0844 9.89059 40.4984C10.547 39.9124 11.663 39.1528 12.3851 38.8055C13.1291 38.48 14.3545 38.0893 15.1203 37.9591C15.9081 37.8289 17.1991 37.7855 17.965 37.8506C18.7527 37.9374 19.8031 38.0893 20.2626 38.2195C20.744 38.328 21.3129 38.48 21.5317 38.5234C21.8818 38.6319 21.9037 38.0242 21.9037 28.1492C21.9037 18.4044 21.9256 17.6448 22.2976 17.189C22.5383 16.8635 23.0197 16.6248 23.6105 16.5379C24.5295 16.386 24.5514 16.3643 24.5514 15.5179C24.5514 15.0404 24.3545 14.3025 24.1357 13.8901C23.9168 13.4778 23.3917 12.9569 22.9978 12.7399C22.5821 12.5445 22.0569 12.3709 21.7943 12.3709C21.5536 12.3926 20.9628 12.5228 20.4814 12.6748C20.0219 12.8267 19.0591 13.3041 18.3589 13.7382V13.7382ZM60.372 21.4429C59.9125 21.9421 59.4092 22.7234 59.2123 23.1574C59.0372 23.6132 58.884 24.2643 58.884 24.6333C58.884 24.9805 58.9934 25.6316 59.1466 26.044C59.2779 26.4563 59.7155 27.216 60.0875 27.7368C60.4595 28.2577 61.0941 28.8871 61.5098 29.1476C61.9475 29.3863 62.9322 29.7118 63.698 29.8421C64.4858 29.994 65.6674 30.3629 66.3239 30.6885C67.0022 30.9923 68.0306 31.6217 68.6214 32.0775C69.2123 32.5116 70.1094 33.4665 70.5908 34.1827C71.0941 34.8989 71.7287 36.0492 71.9912 36.722C72.3195 37.6118 72.4508 38.4583 72.4508 39.6085C72.4508 41.1495 72.4945 41.2363 72.954 41.2363C73.2166 41.2363 74.9672 41.475 76.8271 41.8006C79.1466 42.1695 80.6783 42.3215 81.6411 42.2563C82.5383 42.1912 83.4792 41.9525 84.1575 41.6052C84.7702 41.3014 85.558 40.8239 85.9081 40.5201C86.2801 40.2162 86.8709 39.9124 87.221 39.8256C87.6368 39.7171 88.14 39.7822 88.512 39.9558C88.8621 40.1294 89.2341 40.4333 89.3435 40.6286C89.4529 40.8456 89.5186 41.3882 89.5186 41.8223C89.5186 42.4951 89.3654 42.7772 88.6652 43.4066C88.2057 43.819 87.3523 44.4267 86.7615 44.7522C86.1707 45.0561 85.1203 45.4901 84.3764 45.6855C83.5886 45.8808 82.2101 46.0327 80.8753 46.0327C79.6718 46.011 77.5492 45.8157 76.1269 45.5769C74.7046 45.3382 73.1072 45.1429 72.5602 45.1429C72.035 45.1429 71.4223 45.208 71.2254 45.2948C71.0284 45.3816 70.744 45.7289 70.5689 46.0544C70.4158 46.38 70.2626 46.9443 70.2626 47.3132C70.2626 47.7039 70.547 48.2899 70.9847 48.8541C71.3786 49.3533 72.1882 50.0261 72.779 50.3734C73.3917 50.6989 74.4639 51.133 75.186 51.3283C75.93 51.5019 77.4836 51.7624 78.6871 51.8926C80.2845 52.0662 81.4661 52.0662 83.0197 51.8926C84.2013 51.7624 85.8643 51.3934 86.7396 51.0679C87.6149 50.764 88.6652 50.3083 89.081 50.0478C89.5186 49.8091 90.3939 49.1797 91.0503 48.6588C91.7287 48.1379 92.6915 47.2047 93.2166 46.5753C93.7199 45.9676 94.4858 44.7739 94.9015 43.9492C95.3173 43.0811 95.7549 41.7355 95.9081 40.8022C96.1269 39.5 96.1269 38.8706 95.9081 37.6552C95.7549 36.8088 95.3392 35.3981 94.9672 34.5083L94.2888 32.8805C93.3698 34.0525 92.5602 34.7253 91.9256 35.1377C91.2691 35.5717 90.1969 36.0709 89.5186 36.2662C88.8621 36.4616 87.7462 36.6786 87.0022 36.7654C86.2801 36.8522 85.0109 36.8088 84.1575 36.6786C83.326 36.5484 82.0569 36.2445 81.3129 36.0275C80.5908 35.7888 79.2779 35.116 78.3589 34.53C77.4617 33.944 76.4551 33.1844 76.1488 32.8371C75.8206 32.5116 74.8796 31.4915 74.0481 30.6017C73.2166 29.7118 71.86 28.0407 71.0066 26.9121C70.1532 25.7835 68.8184 23.9171 68.0525 22.7885C67.0897 21.3561 66.4114 20.5965 65.8862 20.336C65.4048 20.0973 64.6389 19.9671 63.8074 19.9671C63.0853 19.9671 62.2101 20.0973 61.8381 20.2709C61.488 20.4228 60.8315 20.9437 60.372 21.4429V21.4429ZM25.4048 29.8421C29.2341 29.625 30.6783 29.4297 31.116 29.2778C31.5317 29.1476 32.1882 28.7786 32.5821 28.4965C32.9759 28.2143 33.4792 27.6066 33.7418 27.1291C33.9825 26.6517 34.2232 25.8921 34.2888 25.4363C34.3764 25.0022 34.3107 24.2209 34.1794 23.7C34.0481 23.2008 33.6324 22.4195 33.2385 21.9855C32.8446 21.5514 32.035 20.9654 31.4442 20.6833C30.5033 20.2492 30 20.1841 27.8775 20.1841H25.4267L25.4048 29.8421ZM25.4048 46.011C32.4726 45.9025 32.8009 45.8591 33.9387 45.3382C34.5952 45.0127 35.4048 44.4918 35.7549 44.1445C36.105 43.7973 36.6521 43.016 36.9584 42.43C37.4398 41.4967 37.5274 41.0627 37.5274 39.5C37.5274 38.0242 37.4398 37.4816 37.0678 36.7871C36.8052 36.3096 36.2582 35.5934 35.8643 35.2245C35.4705 34.8338 34.5514 34.2695 33.8293 33.9223C32.6039 33.3797 32.2538 33.3363 28.9716 33.2495L25.4486 33.141L25.4048 46.011ZM12.6039 43.4283C12.0131 43.9709 11.1816 45.0561 10.7659 45.8157C10.2845 46.7055 9.97812 47.6388 9.91247 48.3984C9.80306 49.4184 9.89059 49.7874 10.4595 51.0028C10.919 51.936 11.5536 52.7824 12.3195 53.4987C12.9759 54.1063 14.0919 54.9094 14.814 55.2783C15.5361 55.669 16.6958 56.1899 17.4179 56.4286C18.14 56.689 20.0438 57.1665 21.6411 57.5355C23.2385 57.8827 25.0109 58.1649 25.5799 58.1649C26.1488 58.1649 26.9584 58.078 27.3742 57.9695C27.8118 57.861 28.4683 57.4052 28.8621 56.9929C29.3217 56.472 29.5624 55.9945 29.5624 55.5605C29.5624 55.1264 29.3217 54.6489 28.8621 54.128C28.4683 53.694 27.6149 52.9778 26.9365 52.5437C26.2801 52.1313 25.4923 51.6539 25.186 51.5236C24.9015 51.3934 24.442 51.0679 24.2013 50.8074C23.9606 50.547 23.6761 50.3517 23.5449 50.3517C23.4354 50.3517 22.9978 50.0044 22.6039 49.5704C22.2101 49.158 21.8818 48.5937 21.86 48.3333C21.86 48.0728 21.8381 46.7489 21.8162 45.3816L21.7943 42.9074C19.5624 41.9742 18.6652 41.8006 17.4179 41.7572C16.1707 41.6921 15.4048 41.7789 14.6827 42.061C14.1575 42.2563 13.2166 42.864 12.6039 43.4283V43.4283ZM52.8665 47.8124C52.8665 47.9426 53.5667 48.5937 54.3982 49.2231C55.2516 49.8308 56.5864 50.6121 57.3523 50.916C58.14 51.2198 59.2779 51.5454 59.8687 51.6105C60.6127 51.6973 61.1379 51.8926 61.4661 52.2399C61.7505 52.5437 61.9475 53.0212 61.9694 53.4552C61.9694 53.8459 61.7724 54.4319 61.5317 54.7574C61.116 55.2783 60.9409 55.3434 59.8249 55.3434C59.1247 55.3434 57.965 55.1915 57.2429 54.9962C56.5208 54.8008 55.3392 54.3668 54.6171 53.9978C53.895 53.6289 52.8665 53.0429 52.3195 52.6739C51.7943 52.305 50.744 51.3934 50.0219 50.6555L48.709 49.3099C45.4486 50.0695 44.1794 50.178 41.5974 50.1998C38.9716 50.1998 37.7462 50.1129 36.1269 49.7657C34.5514 49.4184 33.7856 49.3533 32.954 49.5052C32.3632 49.5921 31.4442 49.6789 30.9409 49.7006H30C31.7505 51.3066 32.5164 52.1965 32.8228 52.739C33.3042 53.5855 33.3917 53.9761 33.3917 55.4519C33.3698 56.8844 33.2823 57.3835 32.8009 58.2734C32.4945 58.8811 31.9037 59.6624 31.5098 60.053C31.0941 60.422 30.3501 60.9212 29.8468 61.1816C29.3217 61.4421 28.2276 61.7676 27.4179 61.9195L25.9081 62.18C25.3611 65.2184 24.6608 67.8445 24.0044 69.9932C23.326 72.1418 22.779 74.03 22.779 74.1819C22.779 74.3338 22.8665 74.4423 22.954 74.464C23.0416 74.464 24.267 73.2269 25.6893 71.686C27.0897 70.1668 28.7527 68.4739 29.3873 67.9313C30.0219 67.3888 31.0284 66.5857 31.6411 66.13C32.2538 65.6742 34.4201 64.4805 36.4551 63.5039C39.6718 61.9412 40.372 61.5072 41.6193 60.3135C42.4289 59.5539 43.1729 58.7074 43.326 58.447C43.5449 57.9912 43.5011 57.9044 42.4726 57.4052C41.8818 57.1014 41.291 56.6673 41.1597 56.4286C41.0503 56.1899 40.9409 55.7124 40.9409 55.3434C40.9409 54.9962 41.0284 54.5187 41.1379 54.3234C41.2473 54.1063 41.6193 53.8025 41.9475 53.6506C42.2976 53.4769 42.8665 53.4118 43.1947 53.4769C43.523 53.5421 45.0985 54.3451 46.6958 55.2132C48.2932 56.103 50.1313 57.0363 50.7877 57.2967C51.4661 57.5572 52.8446 57.9695 53.8512 58.2083C55.0985 58.5121 56.477 58.664 58.0088 58.664C59.6061 58.6857 60.744 58.5555 61.7287 58.2734C62.5164 58.0563 63.8512 57.5355 64.6827 57.1231C65.5361 56.7107 66.6083 56.0813 67.0897 55.7124C67.5711 55.3434 68.3589 54.6706 68.8403 54.1932L69.7155 53.3467C67.7462 51.35 67.1554 50.5253 66.9147 49.8742C66.5864 48.941 66.4989 48.8541 66.105 49.0495C65.8643 49.1797 65.0109 49.375 64.2013 49.5052C63.1729 49.6572 62.2538 49.6789 61.1816 49.5052C60.3501 49.3967 59.1685 49.0929 58.5558 48.8324C57.965 48.572 56.8928 47.9426 56.2144 47.4217C55.5142 46.8791 54.8796 46.4451 54.7921 46.4451C54.7046 46.4668 54.2232 46.7055 53.7418 46.9877C53.2604 47.2915 52.8665 47.6605 52.8665 47.8124V47.8124Z" fill="white"/>
</g>
<defs>
<clipPath id="clip0_107_7">
<rect width="100" height="79" fill="white"/>
</clipPath>
</defs>
</svg>
